<?xml version="1.0" standalone="no"?><!DOCTYPE svg PUBLIC "-//W3C//DTD SVG 1.1//EN" "http://www.w3.org/Graphics/SVG/1.1/DTD/svg11.dtd"><svg t="1569489435247" class="icon" viewBox="0 0 1024 1024" version="1.1" xmlns="http://www.w3.org/2000/svg" p-id="1411" xmlns:xlink="http://www.w3.org/1999/xlink" width="200" height="200"><defs><style type="text/css"></style></defs><path d="M591.431169 512.058639l417.040873-416.982233a54.592949 54.592949 0 0 0 0-76.817146l-2.286923-2.286923a54.592949 54.592949 0 0 0-76.817146 0L512.151184 433.540961 95.344867 15.79642a54.592949 54.592949 0 0 0-76.817146 0l-2.286922 2.286923a53.537446 53.537446 0 0 0 0 76.817146l417.040872 417.15815-417.040872 417.040872a54.592949 54.592949 0 0 0 0 76.817146l2.286922 2.286923a54.592949 54.592949 0 0 0 76.817146 0l416.806317-417.040872 416.982233 417.040872a54.592949 54.592949 0 0 0 76.817146 0l2.286923-2.286923a54.592949 54.592949 0 0 0 0-76.817146z" p-id="1412" fill="#ffffff"></path></svg>