<?xml version="1.0" standalone="no"?><!DOCTYPE svg PUBLIC "-//W3C//DTD SVG 1.1//EN" "http://www.w3.org/Graphics/SVG/1.1/DTD/svg11.dtd"><svg t="1569489449348" class="icon" viewBox="0 0 1024 1024" version="1.1" xmlns="http://www.w3.org/2000/svg" p-id="1593" xmlns:xlink="http://www.w3.org/1999/xlink" width="200" height="200"><defs><style type="text/css"></style></defs><path d="M365.143465 92.732377m-92.732377 0a92.732377 92.732377 0 1 0 185.464754 0 92.732377 92.732377 0 1 0-185.464754 0Z" p-id="1594" fill="#ffffff"></path><path d="M658.856535 92.732377m-92.732377 0a92.732377 92.732377 0 1 0 185.464754 0 92.732377 92.732377 0 1 0-185.464754 0Z" p-id="1595" fill="#ffffff"></path><path d="M365.143465 367.089444m-92.732377 0a92.732377 92.732377 0 1 0 185.464754 0 92.732377 92.732377 0 1 0-185.464754 0Z" p-id="1596" fill="#ffffff"></path><path d="M658.856535 367.089444m-92.732377 0a92.732377 92.732377 0 1 0 185.464754 0 92.732377 92.732377 0 1 0-185.464754 0Z" p-id="1597" fill="#ffffff"></path><path d="M365.143465 641.446511m-92.732377 0a92.732377 92.732377 0 1 0 185.464754 0 92.732377 92.732377 0 1 0-185.464754 0Z" p-id="1598" fill="#ffffff"></path><path d="M658.856535 641.446511m-92.732377 0a92.732377 92.732377 0 1 0 185.464754 0 92.732377 92.732377 0 1 0-185.464754 0Z" p-id="1599" fill="#ffffff"></path><path d="M365.143465 931.267623m-92.732377 0a92.732377 92.732377 0 1 0 185.464754 0 92.732377 92.732377 0 1 0-185.464754 0Z" p-id="1600" fill="#ffffff"></path><path d="M658.856535 931.267623m-92.732377 0a92.732377 92.732377 0 1 0 185.464754 0 92.732377 92.732377 0 1 0-185.464754 0Z" p-id="1601" fill="#ffffff"></path></svg>