<?xml version="1.0" standalone="no"?><!DOCTYPE svg PUBLIC "-//W3C//DTD SVG 1.1//EN" "http://www.w3.org/Graphics/SVG/1.1/DTD/svg11.dtd"><svg t="1562135414070" class="icon" viewBox="0 0 1024 1024" version="1.1" xmlns="http://www.w3.org/2000/svg" p-id="1296" width="300" height="300" xmlns:xlink="http://www.w3.org/1999/xlink"><defs><style type="text/css"></style></defs><path d="M964.4 725.6H60.64a60 60 0 1 1 0-120h904a60 60 0 1 1 0 120zM498.96 427.76H65.76C29.68 427.76 0.48 400.88 0.48 368s29.2-60 65.28-60h433.2c36.08 0 65.28 26.8 65.28 60s-29.2 59.76-65.28 59.76zM964.16 1023.36H60.4a60 60 0 1 1 0-120h904a60 60 0 1 1 0 120zM498.96 129.92H65.76c-36.08 0-65.28-26.88-65.28-60s29.2-60 65.28-60h433.2c36.08 0 65.28 26.88 65.28 60s-29.2 60-65.28 60zM709.68 256.64l314.8 245.76V10.88L709.68 256.64z" fill="#025193" p-id="1297"></path></svg>