<?xml version="1.0" standalone="no"?><!DOCTYPE svg PUBLIC "-//W3C//DTD SVG 1.1//EN" "http://www.w3.org/Graphics/SVG/1.1/DTD/svg11.dtd"><svg t="1562135859968" class="icon" viewBox="0 0 1024 1024" version="1.1" xmlns="http://www.w3.org/2000/svg" p-id="1732" xmlns:xlink="http://www.w3.org/1999/xlink" width="300" height="300"><defs><style type="text/css"></style></defs><path d="M861.461587 1.599001h-699.562774A161.419113 161.419113 0 0 0 0.3198 163.018114v699.562773a161.419113 161.419113 0 0 0 161.419113 161.419113h699.562773a161.419113 161.419113 0 0 0 161.419114-161.419113v-699.562773A161.419113 161.419113 0 0 0 861.461587 1.599001z m-418.378514 399.750156A40.854466 40.854466 0 0 1 440.044972 415.740162v0.559651a39.975016 39.975016 0 0 1-21.986259 21.986258h-0.55965a40.854466 40.854466 0 0 1-14.710806 2.878201H187.482823a40.374766 40.374766 0 0 1 0-80.749531h117.766396L172.372267 227.937539a39.975016 39.975016 0 1 1 57.084323-57.084322L362.333542 303.810119V185.963773a39.975016 39.975016 0 0 1 80.749531 0z m390.076202 260.956902H715.392879l132.876952 132.876952a39.975016 39.975016 0 1 1-57.084322 57.004372L658.308557 719.550281v117.846346a39.975016 39.975016 0 0 1-80.749531 0V621.771393a40.854466 40.854466 0 0 1 2.878201-14.710806v-0.6396a41.094316 41.094316 0 0 1 21.986258-21.986259h0.639601a39.975016 39.975016 0 0 1 14.710805-2.878201h215.225484a39.975016 39.975016 0 0 1 0 80.749532z" fill="#025193" p-id="1733"></path></svg>