<?xml version="1.0" standalone="no"?><!DOCTYPE svg PUBLIC "-//W3C//DTD SVG 1.1//EN" "http://www.w3.org/Graphics/SVG/1.1/DTD/svg11.dtd"><svg t="1561442089220" class="icon" viewBox="0 0 1347 1024" version="1.1" xmlns="http://www.w3.org/2000/svg" p-id="1990" xmlns:xlink="http://www.w3.org/1999/xlink" width="168.375" height="128"><defs><style type="text/css"></style></defs><path d="M1346.901896 512a756.497939 756.497939 0 0 0-193.530091-302.852432C1009.226711 70.384171 847.248145 0 673.450948 0S338.097279 70.384171 193.530091 209.147568A756.497939 756.497939 0 0 0 0.31657 512a756.497939 756.497939 0 0 0 193.213521 302.852432c144.567189 138.763397 306.018137 209.147568 479.920857 209.147568s335.775763-70.384171 479.920857-209.147568a756.497939 756.497939 0 0 0 193.530091-302.852432zM1047.004122 703.947238c-115.02061 110.377576-240.699093 166.832646-373.553174 166.832647s-258.532564-56.032976-373.658697-166.410553a603.594394 603.594394 0 0 1-134.753504-192.369332 603.594394 603.594394 0 0 1 134.753504-191.947238c115.126134-110.377576 240.804617-166.832646 373.658697-166.832647s258.532564 56.032976 373.553174 166.410553a601.483924 601.483924 0 0 1 134.542457 192.369332 601.483924 601.483924 0 0 1-134.542457 191.947238z" fill="#889AA4" p-id="1991"></path><path d="M673.450948 293.460841a218.644683 218.644683 0 0 1 218.539159 218.539159 218.644683 218.644683 0 0 1-218.539159 218.539159 218.644683 218.644683 0 0 1-218.539159-218.539159 218.644683 218.644683 0 0 1 218.539159-218.539159z" fill="#889AA4" p-id="1992"></path></svg>