<?xml version="1.0" standalone="no"?><!DOCTYPE svg PUBLIC "-//W3C//DTD SVG 1.1//EN" "http://www.w3.org/Graphics/SVG/1.1/DTD/svg11.dtd"><svg t="1561442082029" class="icon" viewBox="0 0 1620 1024" version="1.1" xmlns="http://www.w3.org/2000/svg" p-id="1770" xmlns:xlink="http://www.w3.org/1999/xlink" width="202.5" height="128"><defs><style type="text/css"></style></defs><path d="M1385.939582 251.701697C1212.238863 85.080483 1018.184566 0 809.21274 0S406.186617 85.080483 232.485897 251.701697A908.578653 908.578653 0 0 0 0 616.043381l179.263188 61.566412A722.10954 722.10954 0 0 1 363.709585 388.614273c139.82023-133.499243 284.950088-198.984667 445.503155-198.984667s306.315024 64.979745 445.503154 198.478988a720.592504 720.592504 0 0 1 184.319978 289.501199l179.389607-61.566412a910.22211 910.22211 0 0 0-232.485897-364.341684z" fill="#889AA4" p-id="1771"></path><path d="M809.21274 493.795495a261.815276 261.815276 0 0 1 261.688856 261.688856 261.941696 261.941696 0 0 1-261.688856 261.688857 261.815276 261.815276 0 0 1-261.688857-261.688857 261.562437 261.562437 0 0 1 261.688857-261.688856z" fill="#889AA4" p-id="1772"></path><path d="M809.21274 1023.999874a268.009843 268.009843 0 0 1-267.757004-268.515523 268.009843 268.009843 0 0 1 268.009843-268.009843 268.009843 268.009843 0 0 1 268.009844 268.009843 268.009843 268.009843 0 0 1-268.262683 268.515523z m0-523.377714a255.494289 255.494289 0 0 0-255.115031 254.862191 255.494289 255.494289 0 0 0 255.115031 255.873549 255.494289 255.494289 0 0 0 255.367869-255.36787 255.494289 255.494289 0 0 0-255.367869-255.36787z" fill="#889AA4" p-id="1773"></path></svg>