<?xml version="1.0" standalone="no"?><!DOCTYPE svg PUBLIC "-//W3C//DTD SVG 1.1//EN" "http://www.w3.org/Graphics/SVG/1.1/DTD/svg11.dtd"><svg t="1562135805662" class="icon" viewBox="0 0 1024 1024" version="1.1" xmlns="http://www.w3.org/2000/svg" p-id="1514" width="300" height="300" xmlns:xlink="http://www.w3.org/1999/xlink"><defs><style type="text/css"></style></defs><path d="M862.16 0.4h-700A161.52 161.52 0 0 0 0.64 161.92v700a161.6 161.6 0 0 0 161.52 161.6h700a161.6 161.6 0 0 0 161.84-161.6v-700A161.52 161.52 0 0 0 862.16 0.4zM404.48 229.28H286.56l132.96 132.96a40 40 0 1 1-57.12 57.12L229.44 286.4v117.84a40 40 0 1 1-80.72 0V188.88a39.2 39.2 0 0 1 3.28-14.72v-0.56a40 40 0 0 1 21.76-21.6h0.64a40.56 40.56 0 0 1 14.72-2.88h215.36a40 40 0 0 1 0 80.8z m471.12 605.76a39.2 39.2 0 0 1-2.88 14.72v0.64a40 40 0 0 1-22 21.92h-0.56a42.72 42.72 0 0 1-14.8 2.88H619.84a40.4 40.4 0 1 1 0-80.8h117.92L604.8 661.68a40 40 0 1 1 57.04-57.12l132.96 132.96V619.68a40 40 0 0 1 80.8 0z m0 0" fill="#025193" p-id="1515"></path></svg>