<?xml version="1.0" standalone="no"?><!DOCTYPE svg PUBLIC "-//W3C//DTD SVG 1.1//EN" "http://www.w3.org/Graphics/SVG/1.1/DTD/svg11.dtd"><svg t="1561976305316" class="icon" viewBox="0 0 1024 1024" version="1.1" xmlns="http://www.w3.org/2000/svg" p-id="1148" width="300" height="300" xmlns:xlink="http://www.w3.org/1999/xlink"><defs><style type="text/css"></style></defs><path d="M996.2496 385.5872a28.0576 28.0576 0 0 1-12.9536-3.2256L512 134.656 40.5504 377.7536a27.648 27.648 0 1 1-25.6-49.1008L512 72.2432l497.0496 261.12a27.6992 27.6992 0 0 1-12.9536 52.1728z" fill="#ffffff" p-id="1149"></path><path d="M851.2 652.9536v-76.1344l-145.2544 122.2144 145.2544 122.5728v-78.3872h154.0608v-90.2656h-154.0608z" fill="#ffffff" p-id="1150"></path><path d="M876.3904 769.1776v110.4384L660.48 697.2928l216.0128-181.76v108.032h103.424V431.6672L512 188.2624 44.2368 431.6672v520.0896h935.5776v-182.5792z m-527.36 52.6336H156.2624V753.664h192.8704z m0-109.3632H156.2624v-68.096h192.8704z m0-109.312H156.2624v-68.1472h192.8704zM599.04 776.192a37.5296 37.5296 0 0 1-14.2848 27.9552 102.4 102.4 0 0 1-38.7584 20.48 180.3776 180.3776 0 0 1-53.248 7.4752A182.4256 182.4256 0 0 1 439.2448 824.32a101.0688 101.0688 0 0 1-38.7584-20.48 37.5296 37.5296 0 0 1-14.2848-27.9552v-37.0688a102.4 102.4 0 0 0 45.0048 27.7504 205.312 205.312 0 0 0 122.88 0 102.4 102.4 0 0 0 45.0048-27.7504z m0-88.0128a37.4272 37.4272 0 0 1-14.2848 27.9552 101.4784 101.4784 0 0 1-38.7584 20.48 192.9216 192.9216 0 0 1-106.5472 0 100.4032 100.4032 0 0 1-38.7584-20.48 37.4272 37.4272 0 0 1-14.2848-27.9552v-37.0688a100.4032 100.4032 0 0 0 45.0048 27.7504 205.312 205.312 0 0 0 122.88 0 101.6832 101.6832 0 0 0 45.0048-27.6992z m0-88.6272a37.4272 37.4272 0 0 1-14.2336 27.9552 102.4 102.4 0 0 1-38.7584 20.48 193.7408 193.7408 0 0 1-106.5984 0 101.0688 101.0688 0 0 1-38.7584-20.48 37.4272 37.4272 0 0 1-14.2848-27.9552v-27.9552a37.4272 37.4272 0 0 1 14.2848-27.9552 102.8096 102.8096 0 0 1 38.7584-20.48 192.4608 192.4608 0 0 1 106.5984 0 100.4032 100.4032 0 0 1 38.7584 20.48 37.5296 37.5296 0 0 1 14.2336 27.9552z" fill="#ffffff" p-id="1151"></path></svg>