<?xml version="1.0" standalone="no"?><!DOCTYPE svg PUBLIC "-//W3C//DTD SVG 1.1//EN" "http://www.w3.org/Graphics/SVG/1.1/DTD/svg11.dtd"><svg t="1562054615002" class="icon" viewBox="0 0 1024 1024" version="1.1" xmlns="http://www.w3.org/2000/svg" p-id="1456" width="300" height="300" xmlns:xlink="http://www.w3.org/1999/xlink"><defs><style type="text/css"></style></defs><path d="M868.608 734.8224h2.7136v-3.2768c-0.9216 1.0752-1.7408 2.2016-2.7136 3.2768zM0 89.344v676.1984h622.3872c-0.4096-5.12-0.6656-10.24-0.6656-15.36a209.5616 209.5616 0 0 1 402.2784-81.92v-578.56z m558.08 497.5104H130.048V506.1632H558.08z m185.1904-146.0224H130.048V360.0896h613.2224z m129.28-153.6H130.048V206.3872h742.4zM649.3184 853.9648H163.1744v80.6912H732.16a209.92 209.92 0 0 1-82.8416-80.6912z" fill="#0060A9" p-id="1457"></path><path d="M838.2464 572.416a179.2 179.2 0 1 0 179.2 179.2 179.2 179.2 0 0 0-179.2-179.2z m-115.2 116.6336v-29.9008h62.6688v29.9008h-32.768V721.92h-29.9008z m62.6688 155.2384h-62.6688v-62.6688h29.9008v32.768h32.768z m-30.976-77.6192V737.28h168.96v29.184z m198.7072 47.7184v29.9008H890.88v-29.9008h32.768v-32.768h29.9008z m0-125.3376V721.92h-29.9008v-32.768H890.88v-29.9008h62.6688z" fill="#23771B" p-id="1458"></path></svg>