<?xml version="1.0" standalone="no"?><!DOCTYPE svg PUBLIC "-//W3C//DTD SVG 1.1//EN" "http://www.w3.org/Graphics/SVG/1.1/DTD/svg11.dtd"><svg t="1561973360500" class="icon" viewBox="0 0 1024 1024" version="1.1" xmlns="http://www.w3.org/2000/svg" p-id="1773" width="300" height="300" xmlns:xlink="http://www.w3.org/1999/xlink"><defs><style type="text/css"></style></defs><path d="M996.2496 359.2192a27.5968 27.5968 0 0 1-12.9536-3.2256L512 108.032 40.6016 351.3856a27.6992 27.6992 0 1 1-25.6-49.152L512 45.5168 1009.2544 307.2a27.6992 27.6992 0 0 1-13.0048 52.224z" fill="#0060A9" p-id="1774"></path><path d="M638.72 803.2256a202.1888 202.1888 0 0 1 341.1456-146.3296V405.4016l-467.6096-243.712-468.0192 243.712v520.6528h636.3136a200.5504 200.5504 0 0 1-41.8304-122.8288z m-422.2464-389.12h299.264c8.704 0 15.7696 9.472 15.7696 21.1968v0.5632c0 12.0832-7.2192 21.8112-16.1792 21.8112H216.4736c-8.96 0-16.1792-9.728-16.1792-21.8112s7.2192-21.8624 16.1792-21.8624z m0 75.776h299.264c8.704 0 15.7696 9.472 15.7696 21.1968v0.6144c0 12.032-7.2192 21.76-16.1792 21.76H216.4736c-8.96 0-16.1792-9.728-16.1792-21.76s7.2192-21.9136 16.1792-21.9136z m-5.12 78.592h309.248c6.0928 0 11.0592 6.656 11.0592 14.848s-5.12 14.7968-11.0592 14.7968h-32.2048a20.992 20.992 0 0 0-14.8992 6.7072l-53.0432 53.76a21.0944 21.0944 0 0 1-14.8992 6.7072H327.68a9.2672 9.2672 0 0 1-6.6048-3.1232l-53.6576-56.9344a21.0944 21.0944 0 0 0-15.36-7.2192h-40.96c-6.0928 0-11.0592-6.6048-11.0592-14.7968s5.2224-14.8992 11.3152-14.8992z m376.9344 237.824c0 18.2784-11.0592 33.1776-24.6784 33.1776H171.3152c-13.6192 0-24.7296-14.8992-24.7296-33.1776v-133.5808c0-18.3296 11.1104-33.1776 24.7296-33.1776h81.5104a76.1856 76.1856 0 0 1 10.24 0.3072l54.8864 59.8016a21.0432 21.0432 0 0 0 15.36 7.168h72.9088a20.8896 20.8896 0 0 0 14.8992-6.7072l59.648-60.5696h82.8416c13.6192 0 24.6784 14.7968 24.6784 33.1776z" fill="#0060A9" p-id="1775"></path><path d="M185.1904 800.8704v-125.4912h62.5152l44.1344 48.0256a58.5728 58.5728 0 0 0 42.8544 19.2512H407.552a57.9584 57.9584 0 0 0 41.4208-17.7664l48.7936-49.5104h54.5792v125.4912z" fill="#0060A9" p-id="1776"></path><path d="M846.848 774.7584a35.5328 35.5328 0 0 1 35.584 35.4816 35.5328 35.5328 0 0 1-35.584 35.4816 35.5328 35.5328 0 0 1-35.84-35.4816 35.5328 35.5328 0 0 1 35.84-35.4816z" fill="#23771B" p-id="1777"></path><path d="M846.848 798.4128a11.776 11.776 0 0 1 11.8272 11.8272 11.776 11.776 0 0 1-11.8272 11.8272 11.8272 11.8272 0 0 1-11.8784-11.8272 11.8272 11.8272 0 0 1 11.8784-11.8272z" fill="#FFFFFF" p-id="1778"></path><path d="M999.3728 849.92l-26.5728-26.8288a118.3744 118.3744 0 0 0 0.6144-12.1856A119.8592 119.8592 0 0 0 972.8 798.72l26.4704-26.9312a16.6912 16.6912 0 0 0 6.1952-22.8352l-25.1904-43.52a16.7936 16.7936 0 0 0-22.8864-6.144l-36.6592 9.4208a122.1632 122.1632 0 0 0-21.1456-12.2368l-10.24-36.2496a16.7936 16.7936 0 0 0-16.7936-16.7424h-50.432a16.8448 16.8448 0 0 0-16.7936 16.7424l-10.24 36.352a128.9216 128.9216 0 0 0-21.1456 12.1856l-36.608-9.3696a16.7936 16.7936 0 0 0-22.9376 6.144l-25.088 43.52a16.6912 16.6912 0 0 0 6.1952 22.8352l26.4704 26.9312a118.528 118.528 0 0 0-0.5632 12.1856 120.6272 120.6272 0 0 0 0.5632 12.1856l-26.112 26.7264a16.7936 16.7936 0 0 0-6.1952 22.8864l25.1904 43.4688a16.8448 16.8448 0 0 0 22.8864 6.1952l36.6592-9.4208a127.3856 127.3856 0 0 0 21.1456 12.1856l10.24 36.352a16.7936 16.7936 0 0 0 16.7936 16.7424h50.3808a16.7936 16.7936 0 0 0 16.7936-16.7424l10.24-36.352a126.8224 126.8224 0 0 0 21.1456-12.1856l36.3008 9.5744a16.7424 16.7424 0 0 0 22.8864-6.1952l25.1904-43.4688a16.7936 16.7936 0 0 0-6.144-23.04z m-151.7568 19.5072A58.624 58.624 0 1 1 906.24 810.9056a58.7264 58.7264 0 0 1-58.624 58.624z" fill="#23771B" p-id="1779"></path></svg>