<?xml version="1.0" standalone="no"?><!DOCTYPE svg PUBLIC "-//W3C//DTD SVG 1.1//EN" "http://www.w3.org/Graphics/SVG/1.1/DTD/svg11.dtd"><svg t="1561973498425" class="icon" viewBox="0 0 1024 1024" version="1.1" xmlns="http://www.w3.org/2000/svg" p-id="1854" width="300" height="300" xmlns:xlink="http://www.w3.org/1999/xlink"><defs><style type="text/css"></style></defs><path d="M996.2496 361.5232a28.1088 28.1088 0 0 1-12.9536-3.1744L512 110.1824 40.6016 353.7408a27.6992 27.6992 0 1 1-25.6-49.2032L512 47.616l497.1008 261.6832a27.6992 27.6992 0 0 1-13.0048 52.224zM310.016 481.6384h404.0192v74.8544H310.016zM637.3888 853.9136H310.016v74.8544h361.6768a200.704 200.704 0 0 1-34.304-74.8544zM648.7552 729.8048H310.016v74.8544h322.56a199.68 199.68 0 0 1 16.1792-74.8544zM714.0352 647.4752v-41.728H310.016v74.8544h368.9984a202.5472 202.5472 0 0 1 35.0208-33.1264z" fill="#0060A9" p-id="1855"></path><path d="M746.4448 627.9168a202.0352 202.0352 0 0 1 233.4208 42.0864V407.7568L512.256 163.84 44.2368 407.7568V928.768h233.4208V440.32h468.7872z" fill="#0060A9" p-id="1856"></path><path d="M833.1264 632.9856a171.7248 171.7248 0 1 0 172.032 171.6736 171.8272 171.8272 0 0 0-172.032-171.6736z m-13.0048 283.0336l-96.7168-49.664v-107.008l96.7168 41.3696z m11.0592-132.3008l-107.52-46.08 107.52-45.7728 110.592 43.6736z m111.6672 81.92l-101.0176 51.6096v-115.3024l101.0176-43.3152z" fill="#23771B" p-id="1857"></path></svg>