<?xml version="1.0" standalone="no"?><!DOCTYPE svg PUBLIC "-//W3C//DTD SVG 1.1//EN" "http://www.w3.org/Graphics/SVG/1.1/DTD/svg11.dtd"><svg t="1561973680050" class="icon" viewBox="0 0 1024 1024" version="1.1" xmlns="http://www.w3.org/2000/svg" p-id="3104" width="300" height="300" xmlns:xlink="http://www.w3.org/1999/xlink"><defs><style type="text/css"></style></defs><path d="M0 229.0688L495.0528 19.456l512.7168 209.92-512.7168 209.92z" fill="#0060A9" p-id="3105"></path><path d="M0 270.7968v501.1968l478.976 232.5504V476.4672z m353.6896 470.3744L72.704 617.0624l2.3552-63.488 281.088 124.16z m0-118.9376L72.704 498.0736l2.3552-63.4368 281.088 124.16zM627.7632 789.0944a215.04 215.04 0 0 1 389.12-124.5184v-399.36L515.9936 476.16v528.384l162.7648-77.2608a212.1216 212.1216 0 0 1-50.9952-138.1888z" fill="#0060A9" p-id="3106"></path><path d="M854.016 758.5792a37.5296 37.5296 0 0 1 37.5808 37.4272 37.5296 37.5296 0 0 1-37.5808 37.4272 37.5296 37.5296 0 0 1-37.632-37.4272 37.5296 37.5296 0 0 1 37.632-37.4272z" fill="#23771B" p-id="3107"></path><path d="M854.016 783.36a12.4928 12.4928 0 0 1 12.544 12.4416 12.544 12.544 0 0 1-12.544 12.4928 12.4928 12.4928 0 0 1-12.544-12.4928 12.4928 12.4928 0 0 1 12.544-12.4416z" fill="#FFFFFF" p-id="3108"></path><path d="M1015.1936 837.9392l-28.0064-28.3648c0.4096-4.1984 0.6144-8.4992 0.6144-12.8512s0-8.6016-0.6144-12.8512l27.9552-28.3648a17.664 17.664 0 0 0 6.5536-24.1152l-26.624-45.824a17.7664 17.7664 0 0 0-24.2176-6.5024l-38.7072 9.8816a135.7824 135.7824 0 0 0-22.3232-12.8512l-10.7008-38.1952a17.7152 17.7152 0 0 0-17.7152-17.664h-53.2992a17.7152 17.7152 0 0 0-17.7152 17.664l-10.7008 38.2976a135.2192 135.2192 0 0 0-22.3232 12.8512l-38.7072-9.9328a17.8176 17.8176 0 0 0-24.2176 6.5024l-26.5216 46.08a17.6128 17.6128 0 0 0 6.5536 24.1152l27.9552 28.3648c-0.4096 4.1472-0.6144 8.4992-0.6144 12.8512s0 8.5504 0.6144 12.8512l-27.9552 28.3648a17.5616 17.5616 0 0 0-6.5536 24.064l26.624 46.08a17.7664 17.7664 0 0 0 24.1664 6.5024l38.7072-9.9328a129.28 129.28 0 0 0 22.3744 12.8512l10.7008 38.3488a17.664 17.664 0 0 0 17.7152 17.6128h53.248a17.664 17.664 0 0 0 17.7152-17.6128l10.7008-38.3488a130.2528 130.2528 0 0 0 22.3232-12.8512l38.656 9.9328a17.7664 17.7664 0 0 0 24.2176-6.5024l26.624-46.08a17.664 17.664 0 0 0-6.5024-24.3712z m-160.4096 20.48a61.7984 61.7984 0 1 1 62.1056-61.7984A62.0032 62.0032 0 0 1 855.04 858.5216z" fill="#23771B" p-id="3109"></path></svg>