<?xml version="1.0" standalone="no"?><!DOCTYPE svg PUBLIC "-//W3C//DTD SVG 1.1//EN" "http://www.w3.org/Graphics/SVG/1.1/DTD/svg11.dtd"><svg t="1562054992427" class="icon" viewBox="0 0 1024 1024" version="1.1" xmlns="http://www.w3.org/2000/svg" p-id="1271" width="300" height="300" xmlns:xlink="http://www.w3.org/1999/xlink"><defs><style type="text/css"></style></defs><path d="M996.2496 385.5872a27.5968 27.5968 0 0 1-12.9536-3.2256L512 134.656 40.6016 377.8048a27.8528 27.8528 0 0 1-37.4272-11.8784 27.5968 27.5968 0 0 1 11.8784-37.2736L512 72.2432l497.1008 261.12a27.6992 27.6992 0 0 1-13.0048 52.1728z" fill="#0060A9" p-id="1272"></path><path d="M852.2752 582.3488l145.2544 122.2144-145.2544 122.5728z m-154.0608 76.1344h154.0608v90.2656h-154.0608z" fill="#23771B" p-id="1273"></path><path d="M832.4096 886.784v-110.3872h-154.0608V630.784h154.0608v-108.0832l147.456 124.0576v-215.04l-467.6096-243.456L44.2368 431.7184v520.0384h935.6288v-189.44zM349.184 821.8112H156.3136V753.664H349.184z m0-109.3632H156.3136v-68.096H349.184z m0-109.312H156.3136v-68.1472H349.184z m249.856 173.056a37.4272 37.4272 0 0 1-14.2336 27.9552 102.4 102.4 0 0 1-38.7584 20.48 193.1264 193.1264 0 0 1-106.5984 0 101.0688 101.0688 0 0 1-38.7584-20.48 37.4272 37.4272 0 0 1-14.2336-27.9552v-37.12a101.8368 101.8368 0 0 0 45.0048 27.8016 205.312 205.312 0 0 0 122.88 0 101.7344 101.7344 0 0 0 44.9536-27.7504z m0-88.0128a37.376 37.376 0 0 1-14.2336 27.9552 101.4784 101.4784 0 0 1-38.7584 20.48 193.1264 193.1264 0 0 1-106.5984 0 100.4032 100.4032 0 0 1-38.7584-20.48 37.376 37.376 0 0 1-14.2336-27.9552v-37.0688a100.4032 100.4032 0 0 0 45.0048 27.7504 205.312 205.312 0 0 0 122.88 0 101.2224 101.2224 0 0 0 44.9536-27.6992z m0-88.6272a37.5296 37.5296 0 0 1-14.2848 27.9552 102.4 102.4 0 0 1-38.7584 20.48 193.7408 193.7408 0 0 1-106.5984 0 101.0688 101.0688 0 0 1-38.7584-20.48 37.376 37.376 0 0 1-14.2336-27.9552v-27.9552a37.376 37.376 0 0 1 14.2336-27.9552 102.8096 102.8096 0 0 1 38.7584-20.48 192.4608 192.4608 0 0 1 106.5984 0 101.0688 101.0688 0 0 1 38.7584 20.48 37.4272 37.4272 0 0 1 14.2848 27.9552z" fill="#0060A9" p-id="1274"></path></svg>