<?xml version="1.0" standalone="no"?><!DOCTYPE svg PUBLIC "-//W3C//DTD SVG 1.1//EN" "http://www.w3.org/Graphics/SVG/1.1/DTD/svg11.dtd"><svg t="1561540929997" class="icon" viewBox="0 0 1024 1024" version="1.1" xmlns="http://www.w3.org/2000/svg" p-id="2585" width="300" height="300" xmlns:xlink="http://www.w3.org/1999/xlink"><defs><style type="text/css"></style></defs><path d="M961.692028 387.487386a26.090817 26.090817 0 0 1-12.037941-2.996569L510.9667 153.18668 72.640969 380.202624a25.832492 25.832492 0 1 1-23.714228-45.878507l462.453279-239.467205 462.401615 243.910394a25.832492 25.832492 0 0 1-12.089607 48.72008zM323.319475 483.945913h375.862765v69.74773H323.319475zM637.080928 830.927952H323.319475v69.747729H671.128153a177.469223 177.469223 0 0 1-34.047225-69.747729zM648.343895 715.25005H323.319475V785.30777h308.904945a177.210898 177.210898 0 0 1 16.119475-70.05772zM699.18224 650.255499v-50.68335H323.319475v69.799395h355.403431a178.915843 178.915843 0 0 1 20.459334-19.116045z" fill="#ffffff" p-id="2586"></path><path d="M729.302926 630.7778a177.675883 177.675883 0 0 1 216.992937 44.018567V415.024823l-435.019173-227.325933-435.380827 227.325933v485.650858h216.992936V445.14551h436.104137z" fill="#ffffff" p-id="2587"></path><path d="M969.493441 789.234309a160.161453 160.161453 0 1 1-160.161453-160.161453v160.161453z m-1.601615-22.887589h-135.46559v-135.46559a160.161453 160.161453 0 0 1 135.46559 135.46559z" fill="#ffffff" p-id="2588"></path></svg>