<?xml version="1.0" standalone="no"?><!DOCTYPE svg PUBLIC "-//W3C//DTD SVG 1.1//EN" "http://www.w3.org/Graphics/SVG/1.1/DTD/svg11.dtd"><svg t="1562135913267" class="icon" viewBox="0 0 1024 1024" version="1.1" xmlns="http://www.w3.org/2000/svg" p-id="1858" width="300" height="300" xmlns:xlink="http://www.w3.org/1999/xlink"><defs><style type="text/css"></style></defs><path d="M311.75644 525.509446h-2.318189c-11.031382 47.003279-23.981265 95.925059-36.531459 140.450273a37.250898 37.250898 0 0 0 35.652146 47.083216h4.716316a37.250898 37.250898 0 0 0 35.971897-47.083216C335.737705 621.274629 324.306635 571.953162 311.75644 525.509446z" fill="#025193" p-id="1859"></path><path d="M747.575956 242.610461m13.189696 0l92.567681 0q13.189696 0 13.189696 13.189695l0 86.732241q0 13.189696-13.189696 13.189695l-92.567681 0q-13.189696 0-13.189696-13.189695l0-86.732241q0-13.189696 13.189696-13.189695Z" fill="#025193" p-id="1860"></path><path d="M562.920219 242.610461m13.189695 0l92.008119 0q13.189696 0 13.189695 13.189695l0 86.732241q0 13.189696-13.189695 13.189695l-92.008119 0q-13.189696 0-13.189695-13.189695l0-86.732241q0-13.189696 13.189695-13.189695Z" fill="#025193" p-id="1861"></path><path d="M876.115535 0H148.124278A147.564715 147.564715 0 0 0 0.959251 147.165027v727.91132a147.644653 147.644653 0 0 0 147.165027 147.244964h727.991257a147.644653 147.644653 0 0 0 147.08509-147.244964V147.165027A147.564715 147.564715 0 0 0 876.115535 0zM449.648712 890.024668H439.656518a37.17096 37.17096 0 0 1-35.971897-27.418579l-15.188134-55.396721a37.17096 37.17096 0 0 0-35.891959-27.41858H269.70929a37.17096 37.17096 0 0 0-35.89196 27.41858l-15.188134 55.396721a37.330835 37.330835 0 0 1-35.971897 27.418579h-7.993755a37.250898 37.250898 0 0 1-35.492272-48.602029l114.15082-355.002655a37.250898 37.250898 0 0 1 35.492272-25.899765H335.737705a37.17096 37.17096 0 0 1 35.492272 25.819828l114.230757 355.082592a37.250898 37.250898 0 0 1-35.812022 48.602029z m482.66292-459.560968a13.109758 13.109758 0 0 1-13.029821 13.109758h-39.968774a13.02982 13.02982 0 0 1-13.109758-13.109758 13.189696 13.189696 0 0 0-13.189696-13.189695H760.765652a13.189696 13.189696 0 0 0-13.189696 13.189695V568.355972a13.189696 13.189696 0 0 1-13.189695 13.189695h-39.968775A13.109758 13.109758 0 0 1 681.307728 568.355972V430.4637a13.189696 13.189696 0 0 0-13.189695-13.189695H576.029977a13.109758 13.109758 0 0 0-13.109758 13.189695v2.637939a13.189696 13.189696 0 0 1-13.189696 13.109758h-36.85121a13.109758 13.109758 0 0 1-13.109758-13.109758V194.168306a13.02982 13.02982 0 0 1 13.109758-13.109758h155.23872a13.189696 13.189696 0 0 0 13.189695-13.189696v-64.749414a13.02982 13.02982 0 0 1 13.109758-13.109758h39.968775a13.109758 13.109758 0 0 1 13.189695 13.109758v64.749414a13.189696 13.189696 0 0 0 13.189696 13.189696H919.281811a13.109758 13.109758 0 0 1 13.189696 13.109758z" fill="#025193" p-id="1862"></path></svg>