<?xml version="1.0" standalone="no"?><!DOCTYPE svg PUBLIC "-//W3C//DTD SVG 1.1//EN" "http://www.w3.org/Graphics/SVG/1.1/DTD/svg11.dtd"><svg t="1561540881132" class="icon" viewBox="0 0 1024 1024" version="1.1" xmlns="http://www.w3.org/2000/svg" p-id="1649" width="300" height="300" xmlns:xlink="http://www.w3.org/1999/xlink"><defs><style type="text/css"></style></defs><path d="M961.692028 387.487386a26.090817 26.090817 0 0 1-12.037941-2.996569L510.9667 153.18668 72.640969 380.202624a25.832492 25.832492 0 1 1-23.714228-45.878507l462.453279-239.467205 462.401615 243.910394a25.832492 25.832492 0 0 1-12.089607 48.72008z" fill="#ffffff" p-id="1650"></path><path d="M516.598184 187.69889l-435.380828 227.325933v485.650858h870.4v-485.650858zM428.302725 461.368315h0.309989l-0.309989-0.568315 149.828456-86.43552 19.219374 33.427246-92.996973 53.576589h344.605449v38.387084H428.302725z m-54.09324 334.530777h-180.827447v-84.833905h180.827447z m0-146.883552h-180.827447V584.847629h180.827447z m0-126.269223h-180.827447V458.578406h180.827447zM428.302725 535.817558h420.966296v38.438749l-149.828456 86.383854-19.167709-33.37558 91.757013-53.008274H428.302725z m186.3556 260.081534H433.469223v-84.833905h180.827447z m240.448839-0.82664h-180.827447v-84.78224h180.827447z" fill="#ffffff" p-id="1651"></path><path d="M213.893037 728.527952h141.200404v48.20343H213.893037zM453.566902 728.527952h141.200404v48.20343H453.566902zM694.015742 728.527952h141.200403v48.20343h-141.200403z" fill="#ffffff" p-id="1652"></path></svg>