<?xml version="1.0" standalone="no"?><!DOCTYPE svg PUBLIC "-//W3C//DTD SVG 1.1//EN" "http://www.w3.org/Graphics/SVG/1.1/DTD/svg11.dtd"><svg t="1561442015295" class="icon" viewBox="0 0 1024 1024" version="1.1" xmlns="http://www.w3.org/2000/svg" p-id="1333" xmlns:xlink="http://www.w3.org/1999/xlink" width="128" height="128"><defs><style type="text/css"></style></defs><path d="M822.56 354.56H689.6V312c0-72-22.96-193.28-177.6-193.28C351.36 118.4 334.56 253.44 334.56 312v42.88H201.12V312c0-189.44 122.08-312 310.88-312s310.56 122.24 310.56 312zM600.8 669.44c0-43.52-40-78.64-88.8-78.64s-88.8 35.12-88.8 78.64a76.08 76.08 0 0 0 44.4 67.76v89.68c0 21.76 20 40 44.4 40s44.48-17.92 44.48-40V737.2a76.16 76.16 0 0 0 44.32-67.76zM956.08 512v393.6c0 65.28-60 118.4-133.2 118.4H201.12C127.92 1024 67.92 970.88 67.92 905.6V512c0-65.2 60-118.4 133.2-118.4h621.44c73.52 0 133.52 53.2 133.52 118.4z" fill="#889AA4" p-id="1334"></path></svg>