<?xml version="1.0" standalone="no"?><!DOCTYPE svg PUBLIC "-//W3C//DTD SVG 1.1//EN" "http://www.w3.org/Graphics/SVG/1.1/DTD/svg11.dtd"><svg t="1561973656838" class="icon" viewBox="0 0 1024 1024" version="1.1" xmlns="http://www.w3.org/2000/svg" p-id="2791" width="300" height="300" xmlns:xlink="http://www.w3.org/1999/xlink"><defs><style type="text/css"></style></defs><path d="M788.1216 737.536a35.84 35.84 0 0 1 35.84 35.84 35.84 35.84 0 0 1-35.84 35.84 35.84 35.84 0 0 1-35.84-35.84 35.84 35.84 0 0 1 35.84-35.84z" fill="#ffffff" p-id="2792"></path><path d="M788.1216 761.3952a11.9296 11.9296 0 0 1 11.9296 11.9808 11.9296 11.9296 0 0 1-11.9296 11.9296 11.9296 11.9296 0 0 1-11.9296-11.9296 11.9808 11.9808 0 0 1 11.9296-11.9808z" fill="#ffffff" p-id="2793"></path><path d="M941.5168 813.5168l-26.6752-27.136a124.2112 124.2112 0 0 0 0-24.6784l26.624-27.136a16.9984 16.9984 0 0 0 6.2464-22.8864l-25.344-43.9808a16.8448 16.8448 0 0 0-23.04-6.1952l-36.8128 9.216a123.8016 123.8016 0 0 0-21.2992-12.288l-10.24-36.6592a16.896 16.896 0 0 0-16.8448-16.896h-50.7392a16.896 16.896 0 0 0-16.8448 16.896l-10.24 36.7616a124.7232 124.7232 0 0 0-21.248 12.288l-36.864-9.472a16.8448 16.8448 0 0 0-23.04 6.1952l-25.0368 44.1344a16.896 16.896 0 0 0 6.1952 23.04l26.624 27.1872a134.912 134.912 0 0 0 0 24.6272l-26.624 27.1872a16.9984 16.9984 0 0 0-6.1952 23.0912L655.36 880.64a16.896 16.896 0 0 0 23.04 6.2464l36.864-9.472a125.2864 125.2864 0 0 0 21.248 12.288l10.24 36.7104a16.9472 16.9472 0 0 0 16.896 16.9472H814.08a16.9472 16.9472 0 0 0 16.896-16.9472l10.24-36.7104a125.184 125.184 0 0 0 21.2992-12.288l36.7616 9.472a16.7936 16.7936 0 0 0 23.04-6.2464l25.344-43.9296a17.0496 17.0496 0 0 0-6.144-23.1936z m-152.6272 19.7632a59.2384 59.2384 0 1 1 59.0848-59.2384 59.1872 59.1872 0 0 1-59.0848 59.2384z" fill="#ffffff" p-id="2794"></path><path d="M581.4272 769.8432a202.496 202.496 0 0 1 48.6912-132.0448H291.84v-43.5712h390.0928a202.4448 202.4448 0 0 1 216.4224 7.4752 476.7232 476.7232 0 0 0 7.9872-87.04v-358.912S581.9392 121.344 488.3968 0C398.6944 122.88 74.0864 155.7504 74.0864 155.7504v358.912c0 362.24 396.1344 509.3376 416.2048 509.3376 8.3456 0 93.3376-12.6464 184.32-83.0976a203.264 203.264 0 0 1-93.184-171.0592zM291.84 322.048h396.5952v43.5712H291.84z m0 136.0896h396.5952V501.76H291.84z" fill="#ffffff" p-id="2795"></path></svg>