<?xml version="1.0" standalone="no"?><!DOCTYPE svg PUBLIC "-//W3C//DTD SVG 1.1//EN" "http://www.w3.org/Graphics/SVG/1.1/DTD/svg11.dtd"><svg t="1561973550825" class="icon" viewBox="0 0 1024 1024" version="1.1" xmlns="http://www.w3.org/2000/svg" p-id="2478" width="300" height="300" xmlns:xlink="http://www.w3.org/1999/xlink"><defs><style type="text/css"></style></defs><path d="M996.254259 359.3216a27.9552 27.9552 0 0 1-12.9536-3.1744L512.004659 107.9808 40.555059 351.5392a27.7504 27.7504 0 1 1-25.6-49.2544L512.004659 45.4144 1009.207859 307.2a27.6992 27.6992 0 0 1-12.9536 52.224zM304.439859 479.4368h404.0192v74.8544H304.439859z" fill="#ffffff" p-id="2479"></path><path d="M999.070259 806.9632a171.9296 171.9296 0 1 1-171.9296-171.5712v171.5712z m-1.7408-24.5248h-145.6128v-145.3568a171.9296 171.9296 0 0 1 145.6128 145.3568z" fill="#ffffff" p-id="2480"></path><path d="M630.379059 851.712H304.439859V926.72h360.2944a200.8064 200.8064 0 0 1-34.3552-75.008zM641.591859 727.6032H304.439859v74.8544h320.9728a201.4208 201.4208 0 0 1 16.1792-74.8544zM708.510259 644.096v-40.5504H304.439859v74.8544h367.36a202.8032 202.8032 0 0 1 36.7104-34.304z" fill="#ffffff" p-id="2481"></path><path d="M740.868659 624.64a202.0352 202.0352 0 0 1 233.4208 44.3904V405.5552L506.884659 161.6896 38.660659 405.5552V926.72h233.4208V437.8624h468.7872z" fill="#ffffff" p-id="2482"></path></svg>