<?xml version="1.0" standalone="no"?><!DOCTYPE svg PUBLIC "-//W3C//DTD SVG 1.1//EN" "http://www.w3.org/Graphics/SVG/1.1/DTD/svg11.dtd"><svg t="1560477736026" class="icon" style="" viewBox="0 0 1187 1024" version="1.1" xmlns="http://www.w3.org/2000/svg" p-id="858" xmlns:xlink="http://www.w3.org/1999/xlink" width="148.375" height="128"><defs><style type="text/css"></style></defs><path d="M1155.18869 364.752909a32.199233 32.199233 0 0 1-15.004842-3.735111L593.312078 72.705868 47.019896 355.672725a32.199233 32.199233 0 0 1-29.623295-57.185837L593.827266 0l576.366266 304.025156a32.199233 32.199233 0 0 1-15.004842 60.727753z" fill="#0060A9" p-id="859"></path><path d="M593.956063 135.043582l-542.685869 283.353248v605.345576h270.602352V455.941136h543.651846v567.80127h270.666751v-605.345576l-542.23508-283.353248z" fill="#0060A9" p-id="860"></path><path d="M367.917449 946.721841h454.009182v77.278159h-454.009182zM367.917449 801.438903h454.009182v77.278159h-454.009182zM367.917449 656.155965h454.009182v77.278159h-454.009182zM367.917449 517.699264h454.009182v77.278159h-454.009182z" fill="#43903D" p-id="861"></path></svg>