<?xml version="1.0" standalone="no"?><!DOCTYPE svg PUBLIC "-//W3C//DTD SVG 1.1//EN" "http://www.w3.org/Graphics/SVG/1.1/DTD/svg11.dtd"><svg t="1562054579691" class="icon" viewBox="0 0 1024 1024" version="1.1" xmlns="http://www.w3.org/2000/svg" p-id="1143" width="300" height="300" xmlns:xlink="http://www.w3.org/1999/xlink"><defs><style type="text/css"></style></defs><path d="M836.6592 717.2608a36.9664 36.9664 0 0 1 36.9664 36.9664 36.9152 36.9152 0 0 1-36.9664 36.9152 36.9152 36.9152 0 0 1-36.9664-36.9152 36.9664 36.9664 0 0 1 36.9664-36.9664z" fill="#ffffff" p-id="1144"></path><path d="M836.6592 741.888a12.3392 12.3392 0 0 1 12.3392 12.3392 12.288 12.288 0 0 1-12.3392 12.288 12.2368 12.2368 0 0 1-12.288-12.288 12.288 12.288 0 0 1 12.288-12.3392z" fill="#ffffff" p-id="1145"></path><path d="M995.0208 795.5968l-27.3408-28.0064c0.4096-4.096 0.5632-8.3968 0.5632-12.6976s0-8.448-0.5632-12.6464l27.4944-28.0064a17.5104 17.5104 0 0 0 6.4-23.808l-26.3168-45.312a17.4592 17.4592 0 0 0-23.7568-6.4l-38.0416 9.7792a131.7376 131.7376 0 0 0-21.9648-12.6976l-10.496-37.7344a17.4592 17.4592 0 0 0-17.408-17.408h-52.3776a17.4592 17.4592 0 0 0-17.408 17.408l-10.24 37.8368a133.12 133.12 0 0 0-21.9648 12.6976l-38.0416-9.7792a17.3568 17.3568 0 0 0-23.7568 6.4l-26.0608 45.2608a17.4592 17.4592 0 0 0 6.4512 23.808l27.4432 27.9552c-0.4096 4.1472-0.5632 8.3968-0.5632 12.6976s0 8.4992 0.5632 12.6976l-27.4432 28.0064a17.408 17.408 0 0 0-6.4512 23.7568l26.1632 45.2608a17.3568 17.3568 0 0 0 23.7568 6.4l38.0416-9.7792a128.256 128.256 0 0 0 21.9648 12.6976l10.496 37.8368a17.4592 17.4592 0 0 0 17.408 17.408h52.3264a17.4592 17.4592 0 0 0 17.408-17.408l10.24-37.8368a129.6896 129.6896 0 0 0 21.9648-12.6976l37.9904 9.7792a17.3056 17.3056 0 0 0 23.7568-6.4l26.1632-45.2608a17.5104 17.5104 0 0 0-6.4-23.808z m-157.5424 20.48a61.0304 61.0304 0 1 1 60.9792-61.0304 61.0304 61.0304 0 0 1-60.9792 60.8768z" fill="#ffffff" p-id="1146"></path><path d="M868.608 734.7712h2.7136v-3.2768zM0 89.4464v675.84h622.336c-0.3584-5.12-0.6144-10.24-0.6144-15.36A209.5616 209.5616 0 0 1 1024 667.904v-578.56z m558.08 497.408H129.9968V506.1632H558.08z m185.1392-146.0224H129.9968V360.1408h613.2224z m129.28-153.6h-742.4V206.4384h742.4zM649.2672 853.8624H163.1744v80.6912H732.16a210.3808 210.3808 0 0 1-82.8928-80.6912z" fill="#ffffff" p-id="1147"></path></svg>