<?xml version="1.0" standalone="no"?><!DOCTYPE svg PUBLIC "-//W3C//DTD SVG 1.1//EN" "http://www.w3.org/Graphics/SVG/1.1/DTD/svg11.dtd"><svg t="1561441994370" class="icon" viewBox="0 0 1024 1024" version="1.1" xmlns="http://www.w3.org/2000/svg" p-id="1115" xmlns:xlink="http://www.w3.org/1999/xlink" width="128" height="128"><defs><style type="text/css"></style></defs><path d="M501.106383 0C644.886108 0 761.35169 114.623279 761.35169 256.320401S644.886108 512 501.106383 512s-260.245307-114.623279-260.245307-256.320401S357.406758 0 501.106383 0z m0 0C644.886108 0 761.35169 114.623279 761.35169 256.320401S644.886108 512 501.106383 512s-260.245307-114.623279-260.245307-256.320401S357.406758 0 501.106383 0zM403.544431 597.306633h216.911138c185.67209 0 336.420526 148.025031 336.420526 330.653317v21.306633c0 72.090113-150.508135 74.733417-336.420526 74.733417H403.544431c-185.67209 0-336.420526 0-336.420526-74.733417v-21.306633c0-182.628285 150.508135-330.653317 336.420526-330.653317z" fill="#889AA4" p-id="1116"></path></svg>