<?xml version="1.0" standalone="no"?><!DOCTYPE svg PUBLIC "-//W3C//DTD SVG 1.1//EN" "http://www.w3.org/Graphics/SVG/1.1/DTD/svg11.dtd"><svg t="1562137072072" class="icon" viewBox="0 0 1024 1024" version="1.1" xmlns="http://www.w3.org/2000/svg" p-id="2079" width="300" height="300" xmlns:xlink="http://www.w3.org/1999/xlink"><defs><style type="text/css"></style></defs><path d="M501.12 0.64c144 0 259.92 114.48 259.92 256S644.72 512 501.12 512 241.2 397.52 241.2 256 357.6 0.64 501.12 0.64z m0 0c144 0 259.92 114.48 259.92 256S644.72 512 501.12 512 241.2 397.52 241.2 256 357.6 0.64 501.12 0.64zM403.68 597.2h216.64c185.44 0 336 147.84 336 330.24v21.28c0 72-150.32 74.64-336 74.64H403.68c-185.44 0-336 0-336-74.64v-21.28c0-182.4 150.32-330.24 336-330.24z" fill="#025193" p-id="2080"></path></svg>