<?xml version="1.0" standalone="no"?><!DOCTYPE svg PUBLIC "-//W3C//DTD SVG 1.1//EN" "http://www.w3.org/Graphics/SVG/1.1/DTD/svg11.dtd"><svg t="1561973308878" class="icon" viewBox="0 0 1024 1024" version="1.1" xmlns="http://www.w3.org/2000/svg" p-id="1148" width="300" height="300" xmlns:xlink="http://www.w3.org/1999/xlink"><defs><style type="text/css"></style></defs><path d="M832.944179 634.0608a173.312 173.312 0 1 0 173.056 173.312 173.2096 173.2096 0 0 0-173.056-173.312z m88.0128 254.208a29.0816 29.0816 0 0 1-11.776 22.0672 85.76 85.76 0 0 1-32.1024 16.1792A167.6288 167.6288 0 0 1 788.758579 926.72a84.992 84.992 0 0 1-32.1024-16.1792 29.0816 29.0816 0 0 1-11.8272-22.0672v-29.2864a85.1456 85.1456 0 0 0 37.3248 21.9136 177.2544 177.2544 0 0 0 101.5296 0 84.736 84.736 0 0 0 37.2224-21.9136z m0-69.5296a29.0816 29.0816 0 0 1-11.776 22.0672 84.992 84.992 0 0 1-32.1024 16.128 166.9632 166.9632 0 0 1-88.2688 0 84.992 84.992 0 0 1-32.1024-16.1792 29.0816 29.0816 0 0 1-11.8272-22.0672v-29.3376a84.224 84.224 0 0 0 37.3248 21.9648 177.2544 177.2544 0 0 0 101.5296 0 84.736 84.736 0 0 0 37.2224-21.9136z m0-70.0928a29.0816 29.0816 0 0 1-11.8272 22.0672 85.3504 85.3504 0 0 1-32.1024 16.1792 158.72 158.72 0 0 1-44.1344 5.8368 157.2352 157.2352 0 0 1-44.1344-5.9392 84.992 84.992 0 0 1-32.1024-16.128 29.184 29.184 0 0 1-11.8272-22.1184v-22.0672a29.0816 29.0816 0 0 1 11.8272-22.0672 85.6576 85.6576 0 0 1 32.1024-16.0768 166.9632 166.9632 0 0 1 88.2688 0 84.224 84.224 0 0 1 32.1024 16.128 29.184 29.184 0 0 1 11.8272 22.1184z" fill="#ffffff" p-id="1149"></path><path d="M996.528179 358.4a27.4432 27.4432 0 0 1-12.9536-3.2256L512.278579 106.0352 40.828979 350.4128a27.8016 27.8016 0 1 1-25.6-49.3568L512.278579 43.3152l497.0496 262.5536a27.8016 27.8016 0 0 1-12.8 52.5312zM310.294579 478.7712h404.0192v75.1104H310.294579zM636.182579 852.2752H310.294579v75.1104h360.2944a202.0352 202.0352 0 0 1-34.4064-75.1104zM647.446579 727.7568H310.294579v75.1104h320.9728a200.7552 200.7552 0 0 1 16.1792-75.1104zM714.313779 643.9424v-40.6528H310.294579v75.0592h367.36a203.2128 203.2128 0 0 1 36.6592-34.4064z" fill="#ffffff" p-id="1150"></path><path d="M746.723379 624.64a201.3184 201.3184 0 0 1 233.3696 44.4928V404.48L512.278579 159.9488 44.515379 404.48v522.752h233.3696V437.0432h468.8384z" fill="#ffffff" p-id="1151"></path></svg>